<?xml version="1.0" encoding="utf-8"?>
<!-- Generator: Adobe Illustrator 16.0.0, SVG Export Plug-In . SVG Version: 6.00 Build 0)  -->
<!DOCTYPE svg PUBLIC "-//W3C//DTD SVG 1.1//EN" "http://www.w3.org/Graphics/SVG/1.1/DTD/svg11.dtd">
<svg version="1.1" id="Capa_1" xmlns="http://www.w3.org/2000/svg" xmlns:xlink="http://www.w3.org/1999/xlink" x="0px" y="0px"
	 width="612px" height="792px" viewBox="0 0 612 792" enable-background="new 0 0 612 792" xml:space="preserve">
<g>
	<path fill="#FFFFFF" d="M542.346,325.523c-6.647-76.801-52.108-147.626-115.793-190.052c-34.9-23.249-75.336-37.519-116.84-42.917
		C195.319,77.675,74.841,127.92,31.685,240.284c-37.099,96.597-0.52,192.495,65.913,265.632
		c23.974,26.393,27.298,76.017,27.298,109.446v67.792c0,10.408,8.438,18.846,18.847,18.846h245.301
		c9.929,0,18.135-7.704,18.806-17.61c0.903-13.335,2.386-25.062,2.386-25.062c5.129-21.996,23.884-39.634,63.769-33.231
		c41.844,6.713,68.236-5.756,70.584-33.616c0.773-9.191,1.272-87.695,1.272-87.695c1.999-1.143,15.117-3.75,34.236-8.098
		c14.867-3.38,20.103-21.838,9.263-32.561c-43.469-43.001-49.299-63.047-50.378-67.361
		C533.598,375.327,544.296,348.049,542.346,325.523z M461.326,299.858c-6.039,7.651-12.918,9.146-16.556,9.346
		c-1.198,0.066-2.033,1.206-1.706,2.36c1.868,6.582,3.768,24.711-28.687,31.77c-30.438,6.615-48.845,30.29-60.863,42.313
		c-9.233,9.225-21.724,13.496-34.184,16.298c-12.729,2.865-25.341,5.371-35.384,14.416c-10.576,9.526-25.494,61.984-28.026,71.104
		c-0.223,0.801-0.951,1.353-1.783,1.353h-15.621c-0.877,0-1.636-0.614-1.817-1.474l-7.568-35.803
		c-0.318-1.504-73.698,4.534-79.347-28.22c-0.198-1.149-1.359-1.862-2.456-1.466c-7.057,2.546-29.692,8.81-41.91-10.123
		c-8.663-13.422-6.362-25.955-5.155-30.281c0.25-0.896-0.2-1.828-1.055-2.196c-6.226-2.677-28.72-15.289-25.669-56.784
		c2.461-33.448,25.085-48.273,21.922-53.417c-9.124-14.837-1.193-39.431,17.5-44.921c0.753-0.221,1.288-0.888,1.358-1.67
		l0.789-8.719c2.597-30.743,42.991-50.226,70.455-37.445c1.06,0.493,2.318-0.032,2.67-1.145
		c3.438-10.898,10.377-13.898,12.227-14.938c8.515-4.791,19.571-4.199,28.374-0.586c0.712,0.292,1.522,0.114,2.048-0.448
		c2.501-2.679,12.756-11.182,29.739-11.182c17.42,0,26.274,8.465,29.371,10.835c0.568,0.435,1.334,0.513,1.972,0.188
		c3.919-2.004,18.228-8.411,32.554-3.476c10.818,3.732,16.959,13.578,18.893,17.161c0.413,0.766,1.281,1.157,2.128,0.957
		c5.138-1.217,22.902-4.629,37.827,2.111c15.772,7.13,20.693,17.433,21.948,20.887c0.255,0.703,0.914,1.174,1.662,1.204
		c3.42,0.136,12.857,0.964,18.69,5.866c10.301,8.66,9.295,15.488,8.108,18.41c-0.361,0.89,0.038,1.91,0.901,2.333
		c4.704,2.307,17.892,9.927,26.072,26.112C472.011,272.884,467.505,292.031,461.326,299.858z"/>
</g>
</svg>
